<?xml version="1.0" encoding="utf-8"?>
<svg viewBox="0 0 500 500" xmlns="http://www.w3.org/2000/svg">
  <g transform="matrix(1.3925540447235107, 0, 0, 1.3925540447235107, -42.48151397705078, -103.88544464111328)" style="">
    <path style="fill: rgb(35, 46, 115); stroke: rgba(0, 0, 0, 0);" d="M 103.669 210.696 L 103.47 236.439 L 85.626 235.028 C 85.626 235.028 76.996 234.971 79.297 238.66 C 81.598 242.349 101.452 259.203 101.452 259.203 C 101.452 259.203 110.701 273.442 100.364 289.425 C 90.027 305.408 50.68 295.595 50.68 295.595 L 50.394 271.827 L 75.151 272.561 C 75.151 272.561 84.908 267.981 75.169 262.91 C 65.43 257.839 53.369 244.633 53.403 244.616 C 53.403 244.616 49.207 235.907 50.929 229.793 C 52.651 223.679 53.558 218.446 61.665 215.006 C 69.772 211.566 69.622 211.829 76.441 211.798 C 83.26 211.767 103.416 211.309 103.669 210.696 Z"/>
    <rect x="114.864" y="235.716" width="22.833" height="61.033" style="fill: rgb(230, 96, 26); stroke: rgba(0, 0, 0, 0);"/>
    <ellipse style="fill: rgb(230, 96, 26); stroke: rgba(0, 0, 0, 0);" cx="125.688" cy="215.676" rx="13.474" ry="13.537"/>
    <path style="fill: rgb(35, 46, 115); stroke: rgba(0, 0, 0, 0);" d="M 147.599 212.383 L 172.035 212.464 L 171.835 240.802 L 187.064 240.953 L 186.864 212.382 L 211.23 211.888 L 211.59 295.929 L 186.432 296.575 L 186.006 263.503 L 172.064 263.543 L 172.058 296.186 L 147.488 296.391 L 147.599 212.383 Z"/>
    <path style="fill: rgb(35, 46, 115); stroke: rgba(0, 0, 0, 0);" d="M 222.51 238.869 C 222.51 238.869 225.943 214.98 251.087 210.698 C 276.231 206.416 285.082 238.53 285.082 238.53 L 285.638 296.168 L 261.614 296.574 L 260.686 269.319 L 251.294 269.358 L 251.106 247.3 L 260.202 247.343 C 260.202 247.343 260.095 238.906 257.288 236.412 C 254.481 233.918 247.713 234.767 247.17 246.873 C 246.627 258.979 246.676 295.549 246.676 295.549 L 222.199 295.361 L 222.51 238.869 Z"/>
    <path style="fill: rgb(35, 46, 115); stroke: rgba(0, 0, 0, 0);" d="M 345.075 212.53 L 312.293 213.263 C 312.293 213.263 300.117 213.663 296.009 224.065 C 291.901 234.467 294.14 240.598 294.429 241.441 C 294.718 242.284 296.753 247.474 301.838 252.212 C 306.923 256.95 319.191 266.035 319.191 266.035 C 319.191 266.035 321.261 268.713 320.78 271.148 C 320.299 273.583 317.043 272.273 315.94 272.248 C 314.837 272.223 293.639 272.68 293.639 272.68 L 293.265 296.665 L 327.022 296.066 C 327.022 296.066 346.108 288.326 348.365 278.623 C 350.622 268.92 348.135 262.53 347.228 262.53 C 346.321 262.53 324.44 242.253 324.44 242.253 C 324.44 242.253 319.203 240.997 321.132 237.47 C 323.061 233.943 327.177 234.476 327.177 234.476 L 345.999 234.505 L 345.075 212.53 Z"/>
    <path style="fill: rgba(216, 216, 216, 0); stroke-width: 5px; stroke: rgb(35, 46, 115);" d="M 345.474 199.002 C 345.474 199.002 358.739 198.333 360.723 211.219"/>
    <path style="fill: rgba(216, 216, 216, 0); stroke-width: 5px; stroke: rgb(35, 46, 115);" d="M 346.311 191.459 C 346.311 191.459 365.778 189.261 367.113 210.982"/>
    <path style="fill: rgba(216, 216, 216, 0); stroke-width: 5px; stroke: rgb(35, 46, 115);" d="M 346.861 183.93 C 346.861 183.93 373.379 182.392 374.703 211.046"/>
  </g>
</svg>