<?xml version="1.0" encoding="utf-8"?>
<svg viewBox="0 0 500 500" xmlns="http://www.w3.org/2000/svg">
  <g style="" transform="matrix(1.4573060274124146, 0, 0, 1.4573060274124146, -21.69493293762207, -76.18611907958984)">
    <path style="fill: rgb(216, 216, 216); stroke: rgb(0, 0, 0); fill-opacity: 0; stroke-width: 11px;" d="M 78.988 79.66 L 294.532 79.065 L 294.667 363.2 C 294.667 363.2 292.493 369.608 288.311 370.199 C 284.129 370.79 89.029 369.777 89.029 369.777 C 89.029 369.777 80.26 369.665 79.212 363.639 C 78.164 357.613 78.742 80.538 78.988 79.66 Z"/>
    <rect style="stroke: rgb(0, 0, 0);" x="174.443" y="284.682" width="24.411" height="24.075" rx="6" ry="6"/>
    <rect x="157.384" y="135.719" width="54.945" height="31.356" rx="16" ry="16" style="stroke: rgb(0, 0, 0); stroke-width: 11px; fill: rgb(255, 255, 255);"/>
    <path style="fill: rgb(216, 216, 216); stroke: rgb(0, 0, 0); stroke-width: 11px; stroke-linecap: round;" d="M 178.235 223.782 L 193.443 223.71"/>
    <path style="fill: rgb(216, 216, 216); stroke: rgb(0, 0, 0); stroke-width: 11px;" d="M 299.268 201.911 L 299.293 237.831"/>
  </g>
  <path style="fill: rgb(216, 216, 216); stroke: rgb(0, 0, 0); stroke-width: 6px;" d="M 110.241 41.222 L 110.276 462.802" transform="matrix(1, 0, 0, 1, 0, 1.4210854715202004e-14)"/>
  <path style="fill: rgb(216, 216, 216); stroke: rgb(0, 0, 0); stroke-width: 6px;" d="M 390.288 38.747 L 390.323 460.327" transform="matrix(1, 0, 0, 1, 0, 1.4210854715202004e-14)"/>
  <text style="white-space: pre; fill: rgb(51, 51, 51); font-family: Arial, sans-serif; font-size: 56.3px;" x="166.083" y="269.215" transform="matrix(1, 0, 0, 1, 0, 1.4210854715202004e-14)">+</text>
  <text style="fill: rgb(51, 51, 51); font-family: AppleGothic; font-size: 28px; white-space: pre;" x="149.338" y="303.061" transform="matrix(1.2414230108261108, 0, 0, 0.8993929624557495, 19.608354568481445, -13.481056213378892)">&lt;</text>
  <text style="fill: rgb(51, 51, 51); font-family: AppleGothic; font-size: 28px; white-space: pre;" x="149.338" y="303.061" transform="matrix(1.2414230108261108, 0, 0, 0.8993929624557495, 91.79293823242188, -13.781300544738755)">&gt;</text>
  <text style="white-space: pre; fill: rgb(51, 51, 51); font-family: Arial, sans-serif; font-size: 56.3px;" x="300" y="268.548" transform="matrix(1.6321660280227661, 0, 0, 1, -189.76260375976562, -4.572698116302476)">-</text>
</svg>