<?xml version="1.0" encoding="utf-8"?>
<svg viewBox="0 0 500 500" xmlns="http://www.w3.org/2000/svg">
  <g style="" transform="matrix(1.4573060274124146, 0, 0, 1.4573060274124146, -65.73007202148435, -77.60214996337885)">
    <path style="fill: rgb(216, 216, 216); stroke: rgb(0, 0, 0); fill-opacity: 0; stroke-width: 11px;" d="M 78.988 79.66 L 294.532 79.065 L 294.667 363.2 C 294.667 363.2 292.493 369.608 288.311 370.199 C 284.129 370.79 89.029 369.777 89.029 369.777 C 89.029 369.777 80.26 369.665 79.212 363.639 C 78.164 357.613 78.742 80.538 78.988 79.66 Z"/>
    <rect style="stroke: rgb(0, 0, 0);" x="174.443" y="284.682" width="24.411" height="24.075" rx="6" ry="6"/>
    <rect x="157.384" y="135.719" width="54.945" height="31.356" rx="16" ry="16" style="stroke: rgb(0, 0, 0); stroke-width: 11px; fill: rgb(255, 255, 255);"/>
    <path style="fill: rgb(216, 216, 216); stroke: rgb(0, 0, 0); stroke-width: 11px; stroke-linecap: round;" d="M 178.235 223.782 L 193.443 223.71"/>
    <path style="fill: rgb(216, 216, 216); stroke: rgb(0, 0, 0); stroke-width: 11px;" d="M 299.268 201.911 L 299.293 237.831"/>
  </g>
  <path style="fill: rgb(216, 216, 216); stroke: rgb(0, 0, 0); stroke-width: 6px;" d="M 66.206 39.806 L 66.241 461.386" transform="matrix(1, 0, 0, 1, 5.684341886080802e-14, 5.684341886080802e-14)"/>
  <path style="fill: rgb(216, 216, 216); stroke: rgb(0, 0, 0); stroke-width: 6px;" d="M 346.253 37.331 L 346.288 458.911" transform="matrix(1, 0, 0, 1, 5.684341886080802e-14, 5.684341886080802e-14)"/>
  <text style="white-space: pre; fill: rgb(51, 51, 51); font-family: Arial, sans-serif; font-size: 56.3px;" x="122.048" y="267.799" transform="matrix(1, 0, 0, 1, 5.684341886080802e-14, 5.684341886080802e-14)">+</text>
  <text style="fill: rgb(51, 51, 51); font-family: AppleGothic; font-size: 28px; white-space: pre;" x="149.338" y="303.061" transform="matrix(1.2414230108261108, 0, 0, 0.8993929624557495, -24.426780700683537, -14.897089004516545)">&lt;</text>
  <text style="fill: rgb(51, 51, 51); font-family: AppleGothic; font-size: 28px; white-space: pre;" x="149.338" y="303.061" transform="matrix(1.2414230108261108, 0, 0, 0.8993929624557495, 47.757804870605526, -15.197333335876408)">&gt;</text>
  <text style="white-space: pre; fill: rgb(51, 51, 51); font-family: Arial, sans-serif; font-size: 56.3px;" x="300" y="268.548" transform="matrix(1.6321660280227661, 0, 0, 1, -233.79774475097653, -5.988730907440129)">-</text>
  <text style="font-family: Arial, sans-serif; font-size: 28px; white-space: pre;" transform="matrix(3.6776340007781982, 0, 0, 6.724857807159424, -1061.1925048828125, -1416.015380859375)" x="392.053" y="256.135">&lt;</text>
  <path style="fill: rgb(216, 216, 216); stroke: rgb(0, 0, 0); stroke-linecap: round; stroke-width: 14px;" d="M 394.165 241.372 L 476.283 240.171" transform="matrix(1, 0, 0, 1, 5.684341886080802e-14, 5.684341886080802e-14)"/>
</svg>